<?xml version="1.0" encoding="utf-8"?>
<!-- Generator: Adobe Illustrator 24.1.2, SVG Export Plug-In . SVG Version: 6.00 Build 0)  -->
<svg version="1.1" id="Слой_1" xmlns="http://www.w3.org/2000/svg" xmlns:xlink="http://www.w3.org/1999/xlink" x="0px" y="0px"
	 viewBox="0 0 18 19" style="enable-background:new 0 0 18 19;" xml:space="preserve">
<style type="text/css">
	.st0{fill-rule:evenodd;clip-rule:evenodd;fill:#FFFFFF;}
</style>
<path class="st0" d="M5.1,1.5C3.9,2,2.9,2.6,2.2,3.3C1.6,4.1,1.3,5,1.6,6.5c1.8,5.4,5.2,9,10.2,10.9c0.7,0.2,1.3,0.2,1.7,0.1
	c0.5-0.1,0.8-0.3,1.2-0.7c0.7-0.7,1.3-1.8,1.7-3.1c0-0.3-0.1-0.5-0.3-0.6l-0.1,0l-4-2c0,0,0,0,0,0c-0.1,0-0.2,0.1-0.3,0.3
	c-0.2,0.3-0.4,0.8-0.5,1l-0.2,0.9l-0.8-0.4c-1.9-1-3.6-2.4-4.5-4.8L5.5,7.4l0.7-0.2l0,0l0,0c0,0,0,0,0.1,0c0,0,0.1,0,0.2-0.1
	C6.6,7,6.8,6.9,7,6.7c0.2-0.1,0.3-0.3,0.4-0.4c0-0.1,0.1-0.1,0.1-0.2L5.6,1.9l0-0.1C5.5,1.6,5.3,1.5,5.1,1.5z M7.4,8.2
	C8,9.5,9,10.4,10.2,11.1c0.1-0.2,0.2-0.5,0.4-0.7c0.3-0.5,1-1.1,2-0.8l0.1,0l4.1,2c1,0.3,1.5,1.4,1.3,2.4l0,0l0,0
	c-0.5,1.3-1.1,2.8-2.1,3.7c-0.5,0.5-1.1,0.9-1.9,1c-0.7,0.2-1.6,0.1-2.5-0.1l0,0l0,0c-5.5-2-9.3-6-11.2-11.8l0,0l0,0
	c-0.5-1.9-0.1-3.4,0.9-4.5c0.9-1,2.3-1.7,3.4-2.3l0.1,0l0.1,0c1-0.3,2,0.4,2.3,1.3l1.9,4.3l0,0.1c0.1,0.5,0,1-0.2,1.4
	C8.4,7.5,8.1,7.8,7.8,8C7.7,8.1,7.5,8.1,7.4,8.2z"/>
</svg>
