<?xml version="1.0" encoding="utf-8"?>
<!-- Generator: Adobe Illustrator 24.1.2, SVG Export Plug-In . SVG Version: 6.00 Build 0)  -->
<svg version="1.1" id="Слой_1" xmlns="http://www.w3.org/2000/svg" xmlns:xlink="http://www.w3.org/1999/xlink" x="0px" y="0px"
	 viewBox="0 0 20 14" style="enable-background:new 0 0 20 14;" xml:space="preserve">
<style type="text/css">
	.st0{fill-rule:evenodd;clip-rule:evenodd;fill:#FFFFFF;}
</style>
<path class="st0" d="M10,7.5L1.8,1.4h16.4L10,7.5z M1.3,11.1V2.8l5.3,4L1.3,11.1z M1.7,12.6h16.5l-6-5L10.4,9L10,9.3L9.6,9L7.7,7.6
	L1.7,12.6z M13.4,6.7l5.3,4.4V2.8L13.4,6.7z M1.3,0C0.6,0,0,0.6,0,1.4v11.2C0,13.4,0.6,14,1.3,14h17.3c0.7,0,1.3-0.6,1.3-1.4V1.4
	C20,0.6,19.4,0,18.7,0H1.3z"/>
</svg>
